HIERARCHY
ROOT Hips
{
	OFFSET 0.000000 0.000000 0.000000 
	CHANNELS 6 Xposition Yposition Zposition Yrotation Zrotation Xrotation 
	JOINT Lumbar
	{
		OFFSET 0.000000 0.000000 0.000000 
		CHANNELS 3 Zrotation Xrotation Yrotation
		JOINT Neck
		{
			OFFSET 0.000000 0.445665 0.000000 
			CHANNELS 3 Zrotation Xrotation Yrotation
			End Site
			{
				OFFSET 0.000000 0.227535 0.000000 
			}
		}
		JOINT RightShoulder
		{
			OFFSET 0.019635 0.377685 0.194865 
			CHANNELS 3 Zrotation Xrotation Yrotation
			JOINT RightElbow
			{
				OFFSET 0.000000 -0.243375 0.000000 
				CHANNELS 2 Zrotation Yrotation
				JOINT RightWrist
				{
					OFFSET 0.000000 -0.264825 0.000000 
					CHANNELS 2 Zrotation Xrotation
					End Site
					{
						OFFSET 0.006600 -0.176220 0.000990 
					}
				}
			}
		}
		JOINT LeftShoulder
		{
			OFFSET 0.019635 0.377685 -0.194865 
			CHANNELS 3 Zrotation Xrotation Yrotation
			JOINT LeftElbow
			{
				OFFSET 0.000000 -0.243375 0.000000 
				CHANNELS 2 Zrotation Yrotation
				JOINT LeftWrist
				{
					OFFSET 0.000000 -0.264825 0.000000 
					CHANNELS 2 Zrotation Xrotation
					End Site
					{
						OFFSET 0.006600 -0.176220 -0.000990 
					}
				}
			}
		}
	}
	JOINT RightHip
	{
		OFFSET 0.052140 -0.069960 0.075570 
		CHANNELS 3 Zrotation Xrotation Yrotation
		JOINT RightKnee
		{
			OFFSET 0.000000 -0.402270 0.000000 
			CHANNELS 1 Zrotation
			JOINT RightAnkle
			{
				OFFSET 0.000000 -0.404085 0.000000 
				CHANNELS 3 Zrotation Xrotation Yrotation
				End Site
				{
					OFFSET 0.204105 -0.089430 0.008415 
				}
			}
		}
	}
	JOINT LeftHip
	{
		OFFSET 0.052140 -0.069960 -0.075570 
		CHANNELS 3 Zrotation Xrotation Yrotation
		JOINT LeftKnee
		{
			OFFSET 0.000000 -0.402270 0.000000 
			CHANNELS 1 Zrotation
			JOINT LeftAnkle
			{
				OFFSET 0.000000 -0.404085 0.000000 
				CHANNELS 3 Zrotation Xrotation Yrotation
				End Site
				{
					OFFSET 0.204105 -0.089430 -0.008415 
				}
			}
		}
	}
}
MOTION
Frames: 33
Frame Time: 0.02
0.48006 -0.36597 -0.00942 -535.31867 -9.18348 -4.67892 17.77575 2.80678 -9.48433 -28.64014 9.42636 -2.11954 -5.05597 -24.56528 29.70531 106.52495 72.83389 14.8399 -5.03098 60.32382 15.09577 -54.0022 97.12858 -81.62105 32.79902 3.00481 87.00524 -15.92411 -10.53134 -95.48784 -8.54946 -3.69473 -4.12727 92.12682 18.62036 1.35733 -96.81848 -8.59534 2.59336 3.60252
0.48007 -0.3658 -0.00778 -535.48299 -9.16602 -4.81906 17.83813 3.07105 -9.7612 -28.83725 9.16805 -2.11954 -5.29778 -23.60581 29.96747 106.02638 73.06489 14.50787 -4.96232 59.64793 14.97326 -53.17523 96.87269 -82.17172 31.97198 2.8859 86.92193 -15.91719 -10.65525 -95.40937 -8.53224 -3.67883 -4.11897 92.13668 18.54831 1.19203 -96.87681 -8.58165 2.61366 3.6126
0.48009 -0.36573 -0.00634 -535.63869 -9.16364 -4.96802 17.88925 3.35619 -10.10209 -28.91761 8.77465 -2.11954 -5.31739 -22.52583 30.18449 105.51838 73.29516 14.03672 -4.90588 58.63014 14.78502 -52.13217 96.74719 -82.48977 30.5193 2.80504 86.86731 -15.90041 -10.78749 -95.35213 -8.5138 -3.66164 -4.11049 92.18427 18.46229 0.98823 -96.94286 -8.56911 2.63175 3.62156
0.48011 -0.36563 -0.00484 -535.79819 -9.15175 -5.11046 17.94003 3.62629 -10.41147 -29.04906 8.44144 -2.11955 -5.43045 -21.51283 30.42259 105.01314 73.45243 13.6577 -4.86268 57.78066 14.6505 -51.21817 96.58378 -82.90296 29.38378 2.71422 86.79895 -15.88437 -10.91122 -95.28604 -8.49665 -3.64533 -4.10226 92.21117 18.38638 0.80544 -97.00411 -8.55639 2.65076 3.63093
0.4801 -0.36547 -0.00319 -535.96054 -9.15069 -5.26346 18.01339 3.92262 -10.73432 -29.18582 8.10285 -2.11955 -5.56763 -20.43967 30.66068 104.51566 73.91661 13.14116 -4.75673 56.86884 14.41414 -50.17171 96.32808 -83.38036 28.08222 2.60342 86.73308 -15.88407 -11.05467 -95.21608 -8.47636 -3.62757 -4.09323 92.25175 18.29348 0.60715 -97.07099 -8.54207 2.6705 3.64092
0.48016 -0.36545 -0.00192 -536.11391 -9.13134 -5.39637 18.03784 4.16799 -11.04309 -29.28346 7.74777 -2.11955 -5.60511 -19.46738 30.88748 104.00043 73.76101 12.87681 -4.77499 56.01137 14.37772 -49.35289 96.29576 -83.66137 26.98819 2.53914 86.66933 -15.84926 -11.15966 -95.15936 -8.46229 -3.6126 -4.08587 92.27365 18.23283 0.43218 -97.12777 -8.53145 2.68805 3.64929
0.48046 -0.36581 -0.00163 -536.24537 -9.05122 -5.47409 17.92213 4.27058 -11.2963 -29.31992 7.37508 -2.11955 -5.41757 -18.79266 31.08965 103.42449 71.65908 13.43162 -5.17168 55.35267 14.86938 -49.18546 96.85489 -83.4535 26.62134 2.59335 86.60054 -15.71439 -11.14936 -95.1349 -8.46647 -3.60546 -4.08315 92.23032 18.26766 0.33217 -97.15644 -8.53048 2.70013 3.65335
0.48083 -0.3663 -0.0017 -536.36741 -8.95334 -5.53087 17.75897 4.32046 -11.53248 -29.31822 6.99233 -2.11955 -5.13952 -18.22684 31.28213 102.83349 68.97132 14.232 -5.68472 54.76682 15.56927 -49.25823 97.63241 -83.05262 26.48705 2.69184 86.53363 -15.54651 -11.10119 -95.12304 -8.47685 -3.60121 -4.08215 92.16783 18.33503 0.25703 -97.17443 -8.53326 2.71 3.65579
0.48116 -0.36672 -0.00161 -536.4932 -8.86791 -5.59569 17.62274 4.3918 -11.77708 -29.32281 6.61966 -2.11955 -4.90615 -17.61885 31.48204 102.25789 66.70753 14.86493 -6.1164 54.17226 16.20285 -49.24314 98.30744 -82.74112 26.25161 2.76861 86.46841 -15.39817 -11.07505 -95.10477 -8.48392 -3.59579 -4.08041 92.11713 18.38577 0.16964 -97.19614 -8.53459 2.72083 3.65903
0.48154 -0.36722 -0.00153 -536.62183 -8.76467 -5.66708 17.46368 4.47349 -12.02256 -29.37028 6.22098 -2.11955 -4.64844 -16.97478 31.66907 101.64494 63.79191 15.72769 -6.6657 53.46607 16.7245 -49.13848 99.00516 -82.4199 25.98137 2.85267 86.39343 -15.22977 -11.02934 -95.08975 -8.49301 -3.58974 -4.07853 92.05476 18.44394 0.08419 -97.22268 -8.53499 2.73186 3.66203
0.48183 -0.36758 -0.00151 -536.74131 -8.69394 -5.71965 17.34077 4.52201 -12.25951 -29.32046 5.87322 -2.11956 -4.42473 -16.43434 31.87945 101.1075 62.07749 16.17278 -7.00156 53.00992 17.51718 -49.27034 99.70017 -82.0697 25.83869 2.93275 86.33888 -15.09619 -11.01468 -95.07116 -8.4994 -3.58565 -4.07732 92.01164 18.49435 0.00201 -97.23681 -8.53806 2.7419 3.66512
0.48186 -0.36754 -0.00153 -536.84714 -8.7187 -5.72582 17.33159 4.48157 -12.49235 -29.01544 5.69173 -2.11956 -4.30162 -16.14553 32.17167 100.77185 63.96775 15.40203 -6.68395 53.26876 19.11551 -50.08564 100.37984 -81.74062 26.06814 2.98021 86.3397 -15.06019 -11.10019 -95.03518 -8.49663 -3.58673 -4.07774 92.02619 18.51713 -0.08481 -97.21662 -8.54885 2.75038 3.66927
0.4818 -0.36736 -0.00159 -536.94236 -8.7764 -5.71361 17.35995 4.41141 -12.71417 -28.61352 5.55772 -2.11956 -4.2195 -15.95912 32.48515 100.51448 67.05749 14.20594 -6.15437 53.77336 20.96071 -51.11741 101.03879 -81.37971 26.40718 3.02415 86.36092 -15.06148 -11.21714 -94.99585 -8.49097 -3.58961 -4.07875 92.06055 18.53072 -0.16763 -97.18472 -8.562 2.75783 3.67351
0.48178 -0.36725 -0.00162 -537.03637 -8.81814 -5.70951 17.36977 4.36143 -12.9305 -28.25403 5.38809 -2.11956 -4.13039 -15.73193 32.77927 100.22835 69.50658 13.20406 -5.74472 54.13578 22.62075 -51.98981 101.67838 -80.99962 26.64852 3.07624 86.37306 -15.05032 -11.31642 -94.96091 -8.48673 -3.59132 -4.07934 92.08588 18.54747 -0.24705 -97.15995 -8.57322 2.76535 3.67746
0.48177 -0.36712 -0.00169 -537.15555 -8.86375 -5.70583 17.38455 4.2813 -13.18999 -27.90043 5.27928 -2.11956 -3.99043 -15.48513 33.11392 99.91371 72.34917 12.19753 -5.23827 54.61766 24.59122 -53.11855 102.45256 -80.75627 27.09842 3.10128 86.38464 -15.01977 -11.42915 -94.91446 -8.48224 -3.59454 -4.0806 92.11104 18.5697 -0.34746 -97.12738 -8.58808 2.7745 3.6824
0.48172 -0.367 -0.0017 -537.21985 -8.909 -5.69704 17.39806 4.25778 -13.35792 -27.5114 5.05272 -2.11956 -3.96531 -15.30085 33.36939 99.67627 74.65135 11.10814 -4.88312 54.92271 25.97714 -53.77346 102.93183 -80.22112 27.13868 3.18248 86.40198 -15.03796 -11.52122 -94.89082 -8.47755 -3.59508 -4.08062 92.14108 18.57781 -0.40376 -97.10816 -8.59598 2.78002 3.68532
0.48155 -0.36698 -0.00151 -537.13583 -8.94844 -5.67996 17.40322 4.39621 -13.26957 -27.05411 4.51171 -2.11956 -4.26525 -15.27462 33.401 99.64159 75.28899 9.791 -4.98326 54.55052 25.63335 -52.96163 102.66282 -78.91123 26.00821 3.40736 86.43227 -15.18998 -11.55389 -94.9327 -8.47248 -3.58712 -4.07676 92.1835 18.54982 -0.33724 -97.13099 -8.5831 2.77585 3.68266
0.48134 -0.36698 -0.00126 -536.997 -8.98592 -5.65819 17.40526 4.59305 -13.09085 -26.56359 3.84702 -2.11957 -4.67638 -15.30528 33.35252 99.6806 75.32508 8.42168 -5.2444 54.01246 24.70103 -51.68163 102.08834 -77.30925 24.46459 3.68996 86.46731 -15.38841 -11.56393 -94.99725 -8.46736 -3.5765 -4.07167 92.22959 18.50762 -0.227 -97.16726 -8.56332 2.76808 3.67797
0.48116 -0.36698 -0.00105 -536.88279 -9.02217 -5.63785 17.40607 4.76465 -12.95742 -26.08465 3.22371 -2.11957 -5.02543 -15.30256 33.34044 99.67989 75.55573 7.14444 -5.44148 53.63854 24.07454 -50.68691 101.60858 -75.82192 23.11536 3.95521 86.49876 -15.56027 -11.58093 -95.05026 -8.46258 -3.5675 -4.06734 92.27161 18.47135 -0.1381 -97.19594 -8.5473 2.76193 3.67418
0.48094 -0.36696 -0.00079 -536.769 -9.06825 -5.61996 17.41924 4.93026 -12.8051 -25.61721 2.66241 -2.11957 -5.42501 -15.33536 33.32796 99.70717 76.14667 5.56992 -5.5955 52.91151 23.29886 -49.40342 101.30158 -74.3941 21.73555 4.18693 86.53672 -15.75646 -11.61278 -95.10846 -8.45639 -3.55683 -4.06217 92.32429 18.43708 -0.04257 -97.23056 -8.52865 2.75577 3.67044
0.4808 -0.36697 -0.00062 -536.64198 -9.09332 -5.59592 17.40555 5.12188 -12.67163 -25.11915 1.94477 -2.11957 -5.7447 -15.30621 33.29841 99.69394 75.84624 4.60014 -5.8768 52.86102 22.68584 -48.59522 100.57857 -72.79301 20.32807 4.49716 86.56229 -15.91263 -11.60825 -95.16116 -8.45314 -3.54899 -4.05845 92.3556 18.39532 0.04915 -97.25603 -8.51392 2.74881 3.66615
0.48089 -0.36705 -0.00072 -536.48732 -9.05742 -5.55786 17.3173 5.37753 -12.60542 -24.54569 0.80105 -2.11958 -5.82132 -15.09235 33.22921 99.53897 73.07154 5.38082 -6.50104 54.86143 22.70863 -49.32075 98.64036 -70.60508 18.87631 5.05573 86.54952 -15.94584 -11.50585 -95.19404 -8.45817 -3.54962 -4.059 92.32492 18.33711 0.1224 -97.25412 -8.51063 2.74045 3.66065
0.48106 -0.36716 -0.00092 -536.32216 -9.00085 -5.51357 17.2021 5.65631 -12.56269 -23.943 -0.49145 -2.11958 -5.81277 -14.81358 33.14769 99.34233 69.44117 6.76191 -7.24374 57.52256 22.90672 -50.52243 96.3187 -68.27821 17.42488 5.68432 86.52448 -15.93717 -11.36802 -95.22045 -8.46616 -3.5532 -4.06105 92.27284 18.27187 0.18982 -97.2424 -8.5117 2.73142 3.65472
0.4812 -0.36725 -0.00107 -536.16483 -8.95591 -5.47102 17.09986 5.92035 -12.51371 -23.35336 -1.69985 -2.11958 -5.83975 -14.56386 33.07975 99.17244 66.30576 7.82509 -7.91218 59.7843 22.99459 -51.43152 94.26759 -66.14375 16.01589 6.24902 86.50696 -15.94823 -11.24818 -95.2492 -8.47271 -3.55544 -4.06244 92.2319 18.20928 0.25803 -97.23446 -8.51148 2.72274 3.64914
0.48134 -0.36736 -0.0012 -535.99261 -8.90176 -5.43279 16.99475 6.20414 -12.44267 -22.76298 -2.98186 -2.11958 -5.88344 -14.31819 32.97562 98.97303 62.7158 9.07412 -8.66967 62.45099 23.18884 -52.63496 91.80667 -63.48786 14.4061 6.94496 86.48172 -15.95809 -11.11953 -95.28122 -8.47963 -3.5576 -4.06372 92.18536 18.14807 0.33545 -97.2298 -8.50818 2.71373 3.64286
0.48147 -0.36743 -0.00142 -535.84967 -8.86155 -5.38427 16.88898 6.45167 -12.42462 -22.16826 -4.1446 -2.11959 -5.87138 -14.0478 32.94462 98.82316 59.86005 10.0822 -9.27108 64.44318 23.2136 -53.35848 90.10296 -61.84554 13.22833 7.39112 86.4692 -15.9598 -11.00119 -95.30464 -8.48652 -3.56062 -4.06557 92.14504 18.08302 0.39195 -97.21588 -8.51235 2.70531 3.63794
0.48154 -0.36741 -0.00189 -535.79027 -8.86787 -5.30774 16.7904 6.59177 -12.5456 -21.5635 -4.93898 -2.11959 -5.71888 -13.7257 33.12249 98.82898 59.39391 10.25372 -9.38233 64.32503 22.70255 -52.51707 90.66 -63.42655 13.1698 7.06113 86.49814 -15.94965 -10.91955 -95.30543 -8.49232 -3.56559 -4.0688 92.12998 18.0048 0.38984 -97.17819 -8.53677 2.69863 3.637
0.48158 -0.36734 -0.00245 -535.76107 -8.88843 -5.22131 16.69174 6.6946 -12.72007 -20.95629 -5.60846 -2.11959 -5.51372 -13.38058 33.37432 98.88403 59.67447 10.16632 -9.33655 63.52146 22.02026 -51.19825 91.97569 -65.973 13.5587 6.48803 86.53977 -15.93236 -10.84978 -95.29775 -8.49804 -3.57128 -4.07251 92.12148 17.92385 0.367 -97.13161 -8.56848 2.69258 3.63745
0.48163 -0.3673 -0.00297 -535.71808 -8.90045 -5.14014 16.59144 6.81525 -12.87124 -20.35414 -6.33574 -2.11959 -5.33725 -13.04524 33.58977 98.91051 59.51088 10.21443 -9.38259 63.08985 21.43845 -50.18543 92.90079 -67.80752 13.79712 6.07388 86.57323 -15.91789 -10.77489 -95.29413 -8.50399 -3.57648 -4.0759 92.10797 17.84696 0.35502 -97.08942 -8.59646 2.68627 3.63718
0.4817 -0.36726 -0.0035 -535.67447 -8.92022 -5.05547 16.49693 6.93294 -13.01798 -19.73531 -7.06236 -2.1196 -5.13894 -12.71045 33.8153 98.96195 59.74347 10.21043 -9.34944 62.42875 20.77576 -48.82679 94.02204 -70.74085 13.82511 5.46566 86.61593 -15.90401 -10.69727 -95.2894 -8.50928 -3.58247 -4.0798 92.10185 17.75776 0.33712 -97.04533 -8.62637 2.67982 3.63723
0.48173 -0.36719 -0.00403 -535.64012 -8.92782 -4.97592 16.39112 7.04773 -13.18753 -19.14971 -7.7607 -2.1196 -4.97328 -12.37001 34.03901 98.9734 59.35959 10.24275 -9.43868 62.07072 20.22731 -48.05167 94.89947 -71.67869 14.38142 5.19286 86.64316 -15.88747 -10.62899 -95.28505 -8.51584 -3.58693 -4.08271 92.0827 17.69387 0.32629 -97.00331 -8.65391 2.67385 3.63697
0.48169 -0.36703 -0.00453 -535.61843 -8.89603 -4.91211 16.25082 7.16271 -13.39768 -18.66773 -8.39379 -2.1196 -4.92304 -12.01909 34.22766 98.86536 56.92599 10.46069 -9.9344 62.74837 20.13559 -49.15694 95.09283 -66.32429 16.42803 5.9954 86.61956 -15.86789 -10.58055 -95.28389 -8.52619 -3.58724 -4.08291 92.02165 17.69866 0.34344 -96.96828 -8.67334 2.66872 3.63528
0.48163 -0.36684 -0.00504 -535.60608 -8.85215 -4.85401 16.1001 7.27616 -13.63104 -18.21713 -9.00531 -2.1196 -4.90556 -11.6639 34.41441 98.71569 53.88375 10.71686 -10.55186 63.74785 20.14682 -50.8391 94.9821 -59.02115 18.96486 7.12876 86.581 -15.84567 -10.54183 -95.28343 -8.53775 -3.5859 -4.08206 91.94829 17.72934 0.36782 -96.93586 -8.69007 2.66411 3.63327
